# xmcd
#
# Track frame offsets:
#	150
#	31501
#	54628
#	85528
#	115400
#	142146
#	215983
#	251378
#	299310
#
# Disc length: 4319 seconds
#
# Revision: 1
# Processed by: cddbd v1.5.2PL0 Copyright (c) Steve Scherf et al.
# Submitted via: audiograbber 1.83.01
#
DISCID=8210dd09
DTITLE=Various Artist - Boombox 3 - Early.Indep.Hip Hop [CD2]
DYEAR=1979
DGENRE=Hip-Hop
TTITLE0=Family - Family Rap
TTITLE1=Bobby D, Bobby Demo Band - Bugs-B-Skate Rap
TTITLE2=Teen Machine - Teen Machine Rap
TTITLE3=TJ Swann - Get Fly
TTITLE4=Poor Boy Rappers - Low Rider Rap
TTITLE5=Sicle Cell and Rhapazooty - Rhapazooty in Blue
TTITLE6=Mr Fox - Smooth Talk
TTITLE7=Solid C, Bobby D and Kool Drop - Wack Rap
TTITLE8=Disco Daddy and Capt.Rapp - The Gigolo Rapp
EXTD=
EXTT0=
EXTT1=
EXTT2=
EXTT3=
EXTT4=
EXTT5=
EXTT6=
EXTT7=
EXTT8=
PLAYORDER=
